HIERARCHY
ROOT pelvis
{
	OFFSET 0.000000 0.000000 0.000000
	CHANNELS 6 Xposition Yposition Zposition Zrotation Xrotation Yrotation
	JOINT lfemur
	{
		OFFSET 11.446000 0.000000 0.000000
		CHANNELS 3 Zrotation Xrotation Yrotation
		JOINT ltibia
		{
			OFFSET 0.000000 -42.030400 0.000000
			CHANNELS 3 Zrotation Xrotation Yrotation
			JOINT lfoot
			{
				OFFSET 0.000000 -39.930200 0.000000
				CHANNELS 3 Zrotation Xrotation Yrotation
				JOINT ltoes
				{
					OFFSET 0.000000 0.000000 11.775800
					CHANNELS 3 Zrotation Xrotation Yrotation
					End Site
					{
					    OFFSET 0.000000 0.000000 5.000000
					}
				}
			}
		}
	}
	JOINT rfemur
	{
		OFFSET -11.446000 0.000000 0.000000
		CHANNELS 3 Zrotation Xrotation Yrotation
		JOINT rtibia
		{
			OFFSET 0.000000 -42.030400 0.000000
			CHANNELS 3 Zrotation Xrotation Yrotation
			JOINT rfoot
			{
				OFFSET 0.000000 -39.930200 0.000000
				CHANNELS 3 Zrotation Xrotation Yrotation
				JOINT rtoes
				{
					OFFSET 0.000000 0.000000 11.775800
					CHANNELS 3 Zrotation Xrotation Yrotation
					End Site
					{
					    OFFSET 0.000000 0.000000 5.000000
					}
				}
			}
		}
	}
	JOINT thorax
	{
		OFFSET 0.000000 11.255600 -5.000000
		CHANNELS 3 Zrotation Xrotation Yrotation
		JOINT head
		{
			OFFSET 0.000000 43.799300 0.000000
			CHANNELS 3 Zrotation Xrotation Yrotation
			End Site
			{
			    OFFSET 0.000000 5.000000 0.000000
			}
		}
		JOINT lclavicle
		{
			OFFSET 0.000000 39.863000 0.000000
			CHANNELS 3 Zrotation Xrotation Yrotation
			JOINT lhumerus
			{
				OFFSET 17.380600 4.958300 0.000000
				CHANNELS 3 Zrotation Xrotation Yrotation
				JOINT lradius
				{
					OFFSET 0.000000 -27.561300 0.000000
					CHANNELS 3 Zrotation Xrotation Yrotation
					JOINT lhand
					{
						OFFSET 0.000000 -26.933000 0.000000
						CHANNELS 3 Zrotation Xrotation Yrotation
						End Site
						{
						    OFFSET 0.000000 -5.000000 0.000000
						}
					}
				}
			}
		}
		JOINT rclavicle
		{
			OFFSET 0.000000 39.863000 0.000000
			CHANNELS 3 Zrotation Xrotation Yrotation
			JOINT rhumerus
			{
				OFFSET -17.380600 4.958300 0.000000
				CHANNELS 3 Zrotation Xrotation Yrotation
				JOINT rradius
				{
					OFFSET 0.000000 -27.561300 0.000000
					CHANNELS 3 Zrotation Xrotation Yrotation
					JOINT rhand
					{
						OFFSET 0.000000 -26.933000 0.000000
						CHANNELS 3 Zrotation Xrotation Yrotation
						End Site
						{
						    OFFSET 0.000000 -5.000000 0.000000
						}
					}
				}
			}
		}
	}
}
MOTION
Frames: 14
Frame Time:	0.0333333
51.985300 80.622600 -2.076500 -8.615286 2.333369 90.935533 -8.335851 -37.142484 -8.705711 -0.000000 52.143663 -0.000000 0.000000 -4.116625 -0.702013 -0.000000 -1.427847 -0.000000 -10.673445 -27.605757 -6.730644 0.000000 49.200018 -0.000000 -0.000000 -11.769818 -2.106344 -0.000000 -29.575787 0.000000 -5.428470 13.174654 -1.257638 18.585796 15.101507 -1.220005 -5.948135 0.000000 0.069777 26.669901 -9.524801 -28.623247 -180.000037 -52.450171 161.945624 32.285618 1.784015 0.000000 25.878643 -0.000000 -0.526515 -46.068119 4.029102 35.279386 180.000033 -50.910213 -170.382073 -5.749593 -1.548032 0.000000 
51.928700 80.748800 -2.376800 -8.680837 2.532021 90.300110 -8.368120 -37.013097 -8.171903 -0.000000 51.748065 -0.000000 0.000000 -3.938328 -0.499091 0.000000 -1.422287 -0.000000 -10.946148 -27.770159 -6.427831 -0.000000 48.837796 -0.000000 0.000000 -11.259451 -1.673389 0.000000 -29.577567 -0.000000 -5.554695 12.997279 -1.026153 18.576167 15.272339 -1.502427 -5.990265 -0.000000 0.095532 26.810666 -9.838130 -29.120537 180.000036 -52.360381 161.967393 32.232633 1.558650 -0.000000 25.687125 0.000000 -0.783024 -45.871351 3.895207 35.491630 180.000036 -50.993967 -170.250974 -5.615515 -1.590252 0.000000 
51.822700 80.662800 -2.744000 -8.623398 2.820409 89.304589 -8.296321 -37.162403 -7.132771 0.000000 52.059088 -0.000000 0.000000 -3.996711 -0.364627 0.000000 -1.410262 -0.000000 -11.448025 -28.346514 -6.162685 -0.000000 49.257774 -0.000000 0.000000 -10.822261 -0.755748 0.000000 -29.582047 -0.000000 -5.698274 12.955039 -0.819547 18.070998 15.314173 -1.497585 -6.019727 0.000000 0.217797 27.184881 -10.583458 -29.746283 -180.000036 -52.214103 162.108669 32.115098 1.622229 -0.000000 25.397541 0.000000 -0.636061 -45.516751 4.180356 35.216389 -180.000036 -50.748276 -170.829371 -5.336335 -1.686034 -0.000000 
51.654700 80.323400 -3.199300 -8.557795 3.184951 87.797331 -8.268164 -37.687878 -5.969531 -0.000000 53.062511 -0.000000 0.000000 -4.501169 0.258618 -0.000000 -1.390022 -0.000000 -12.245684 -29.561129 -6.147206 -0.000000 50.456083 -0.000000 -0.000000 -10.658869 0.849824 -0.000000 -29.586832 -0.000000 -5.897960 13.144321 -0.728545 17.481916 15.167435 -1.057512 -5.782686 -0.000000 0.711438 27.044348 -11.968236 -30.507442 -180.000033 -52.385177 161.841284 31.930229 1.804637 -0.000000 25.063851 0.000000 -0.259770 -45.434467 4.442190 35.221274 -180.000037 -50.488648 -170.007780 -5.775393 -1.535523 0.000000 
51.365900 79.754700 -3.742200 -8.579495 3.581251 85.350974 -7.749087 -38.707555 -3.881247 0.000000 54.668569 -0.000000 -0.000000 -5.564948 1.257935 -0.000000 -1.373736 -0.000000 -13.031845 -31.561101 -6.025217 0.000000 52.145770 0.000000 -0.000000 -10.636720 3.041029 0.000000 -29.593098 -0.000000 -6.051320 13.370698 -0.340330 16.649106 14.957922 -0.491587 -5.654124 0.000000 1.225767 27.248000 -14.149124 -31.828627 180.000033 -52.956969 162.224510 32.085668 1.714327 0.000000 24.637236 -0.000000 0.109437 -45.006121 4.829489 34.672840 -180.000036 -50.026710 -170.711445 -4.951603 -1.815181 0.000000 
51.071600 79.087600 -4.438400 -8.379199 4.188243 81.833168 -6.799667 -39.639350 -0.742782 0.000000 56.495525 -0.000000 0.000000 -6.816912 2.578355 -0.000000 -1.357257 -0.000000 -13.872148 -33.980103 -5.866668 0.000000 54.138857 -0.000000 -0.000000 -10.408355 5.713579 0.000000 -29.600082 -0.000000 -6.405924 13.811235 -0.021545 15.653898 14.627438 0.206968 -5.551808 0.000000 1.786570 27.589669 -16.742062 -33.380816 -180.000037 -53.921193 162.801657 32.266757 1.668895 -0.000000 24.261106 -0.000000 0.201259 -44.346097 4.833538 34.492226 -180.000035 -49.853638 -170.816112 -4.993785 -1.800942 -0.000000 
50.775300 78.502700 -5.226200 -8.189521 4.731687 77.349198 -4.891550 -40.408165 3.810628 -0.000000 58.007893 0.000000 0.000000 -8.299565 3.892136 -0.000000 -1.333946 -0.000000 -14.216002 -36.723032 -5.393850 -0.000000 55.757117 -0.000000 0.000000 -9.696069 8.808443 -0.000000 -29.603904 -0.000000 -6.890898 14.225458 -0.237039 14.983709 14.049505 1.204403 -5.145473 0.000000 1.622972 27.996893 -18.212669 -34.442007 180.000035 -54.752547 162.657243 32.820314 1.809434 -0.000000 24.529271 0.000000 -0.199217 -44.301613 3.661477 34.751337 180.000035 -50.245090 -169.762450 -4.733566 -1.888034 -0.000000 
50.505000 78.193300 -6.089800 -7.967424 5.034000 72.216698 -2.096865 -40.737796 9.285066 0.000000 58.996283 0.000000 0.000000 -9.364150 5.089087 -0.000000 -1.318256 -0.000000 -13.940779 -39.319887 -5.097729 0.000000 56.494829 -0.000000 0.000000 -8.189054 11.576956 -0.000000 -29.604659 -0.000000 -7.142944 14.623671 -0.935803 14.760152 13.130167 1.485674 -4.706915 -0.000000 0.435700 28.864588 -18.345816 -34.003796 180.000034 -55.265875 161.565035 34.102932 2.016122 -0.000000 24.696165 0.000000 -0.770600 -44.089799 2.532109 35.266876 -180.000034 -50.769527 -169.350464 -4.586996 -1.937346 -0.000000 
50.411700 78.271500 -6.883200 -7.602456 5.218177 66.558287 1.129149 -40.066324 15.332240 0.000000 59.038986 -0.000000 -0.000000 -10.037146 6.279961 -0.000000 -1.300995 -0.000000 -13.185166 -41.107013 -5.607711 0.000000 55.774814 0.000000 -0.000000 -6.680344 12.182486 0.000000 -29.601981 0.000000 -7.347326 15.077151 -2.201378 14.936877 12.208938 1.129185 -4.248346 0.000000 -0.156396 30.556486 -18.483996 -32.533869 -180.000027 -55.644336 161.519573 34.541643 2.074794 0.000000 24.760423 0.000000 -1.696634 -44.067429 0.755833 36.432319 -180.000037 -51.244538 -169.616143 -4.405329 -1.998797 0.000000 
50.547000 78.743800 -7.502100 -6.901672 5.200348 60.735710 3.794826 -38.161917 20.392616 -0.000000 58.039155 -0.000000 -0.000000 -10.381631 7.455887 -0.000000 -1.293328 -0.000000 -12.187816 -41.434351 -6.422023 -0.000000 54.176266 -0.000000 -0.000000 -5.311633 12.053430 -0.000000 -29.603392 -0.000000 -7.622688 15.158092 -3.585505 15.805908 11.813679 -0.246064 -3.888922 -0.000000 -0.742758 33.240414 -17.261251 -29.800415 -180.000037 -55.480276 161.385337 35.196827 2.252394 -0.000000 25.020836 0.000000 -2.322996 -44.635069 -0.075184 37.261525 180.000033 -51.213539 -169.948417 -3.848691 -2.188792 0.000000 
50.841900 79.501500 -7.847100 -5.953488 5.460306 54.632894 5.614805 -35.435640 24.964829 -0.000000 56.113414 -0.000000 0.000000 -10.078971 8.654843 0.000000 -1.305753 0.000000 -11.173410 -40.904152 -6.086273 0.000000 53.060749 0.000000 -0.000000 -4.103187 9.300848 -0.000000 -29.595219 0.000000 -8.129969 14.806790 -4.518753 16.462897 11.765418 -1.924895 -4.118388 0.000000 -1.104527 36.897835 -14.693598 -26.310404 -180.000037 -54.680170 161.809073 34.808659 2.253077 0.000000 25.054772 0.000000 -3.487348 -45.245759 -1.300514 38.406504 180.000034 -51.601073 -167.618097 -6.001527 -1.459623 -0.000000 
51.287300 80.618700 -7.924900 -4.699319 5.742239 48.501276 6.161766 -31.929700 28.164005 -0.000000 52.955202 0.000000 -0.000000 -8.831246 10.103606 0.000000 -1.323355 -0.000000 -10.680506 -39.079324 -5.942290 0.000000 52.033266 -0.000000 0.000000 -2.797002 3.801912 -0.000000 -29.577662 0.000000 -8.602369 14.049274 -4.952364 16.840391 12.317543 -3.426441 -5.002100 -0.000000 -1.076799 40.579018 -11.337891 -22.867025 -180.000031 -54.193606 161.988746 34.526527 2.193129 0.000000 24.660371 0.000000 -4.293704 -45.663347 -1.391126 38.629383 -180.000036 -51.341157 -169.042723 -6.552346 -1.273374 0.000000 
51.883100 82.039300 -7.688600 -3.307613 5.879954 42.982576 5.328412 -27.934123 29.420143 0.000000 48.603401 0.000000 -0.000000 -6.839437 11.807970 -0.000000 -1.341931 -0.000000 -11.386996 -35.872114 -7.842650 -0.000000 50.108191 0.000000 -0.000000 -1.135222 -3.142038 -0.000000 -29.554009 0.000000 -8.868155 13.186078 -5.474496 17.431682 13.373690 -4.986728 -5.931962 0.000000 -1.155851 43.048219 -6.750992 -20.195492 180.000035 -53.582159 163.510922 34.372420 2.027824 -0.000000 24.449595 0.000000 -4.726977 -46.119373 -0.681696 38.095487 180.000036 -51.498256 -170.044176 -5.242416 -1.717768 -0.000000 
52.255700 83.573900 -7.178400 -2.304914 5.962426 38.116694 4.081996 -24.194133 28.340353 -0.000000 43.712929 -0.000000 -0.000000 -4.320550 13.168220 -0.000000 -1.367720 -0.000000 -11.990882 -32.059284 -10.001186 -0.000000 46.693635 -0.000000 0.000000 0.287311 -8.588910 -0.000000 -29.536165 0.000000 -8.858115 11.760657 -5.836505 18.179045 14.947766 -6.030660 -7.013346 -0.000000 -0.837725 44.677655 -2.441876 -18.661933 -180.000030 -53.002427 163.662971 35.286359 1.965955 -0.000000 24.623577 0.000000 -5.826368 -46.724431 -0.268133 37.613513 180.000035 -51.783831 -171.440988 -4.876717 -1.837090 -0.000000 
